<svg width="84" height="84" viewBox="0 0 84 84" fill="none" xmlns="http://www.w3.org/2000/svg">
<g clip-path="url(#clip0_1_68)">
<path d="M3.67176e-06 0.00012207C5.51552 0.00012207 10.977 1.08648 16.0727 3.19717C21.1684 5.30787 25.7984 8.40156 29.6985 12.3016C33.5985 16.2017 36.6922 20.8317 38.8029 25.9274C40.9136 31.023 42 36.4845 42 42.0001C42 47.5156 40.9136 52.9771 38.8029 58.0727C36.6922 63.1684 33.5985 67.7984 29.6985 71.6985C25.7984 75.5986 21.1684 78.6923 16.0727 80.8029C10.977 82.9136 5.51552 84 0 84L3.67176e-06 0.00012207Z" fill="#FF7549"/>
<path d="M42 83.9999C47.5155 83.9999 52.977 82.9135 58.0727 80.8028C63.1684 78.6922 67.7984 75.5985 71.6985 71.6984C75.5985 67.7983 78.6922 63.1683 80.8029 58.0726C82.9136 52.977 84 47.5155 84 41.9999C84 36.4844 82.9136 31.0229 80.8029 25.9273C78.6922 20.8316 75.5985 16.2016 71.6985 12.3015C67.7984 8.40144 63.1684 5.30775 58.0727 3.19705C52.977 1.08636 47.5155 -4.82181e-07 42 0V83.9999Z" fill="#233B99"/>
</g>
<defs>
<clipPath id="clip0_1_68">
<rect width="84" height="84" fill="white"/>
</clipPath>
</defs>
</svg>
