<svg width="84" height="84" viewBox="0 0 84 84" fill="none" xmlns="http://www.w3.org/2000/svg">
<g clip-path="url(#clip0_1_82)">
<path d="M84 3.65846e-06C84 5.49555 82.9136 10.9373 80.8029 16.0145C78.6922 21.0917 75.5985 25.705 71.6985 29.591C67.7984 33.4769 63.1684 36.5594 58.0727 38.6625C52.977 40.7655 47.5155 41.8479 42 41.8479C36.4845 41.8479 31.023 40.7655 25.9273 38.6625C20.8316 36.5594 16.2016 33.4769 12.3015 29.591C8.40145 25.705 5.30776 21.0917 3.19706 16.0145C1.08636 10.9373 -4.82181e-07 5.49555 0 0L84 3.65846e-06Z" fill="#FF7549"/>
<path d="M84 83.9998C84 78.5043 82.9136 73.0625 80.8029 67.9853C78.6922 62.9081 75.5985 58.2948 71.6985 54.4088C67.7984 50.5229 63.1684 47.4404 58.0727 45.3373C52.977 43.2343 47.5155 42.1519 42 42.1519C36.4845 42.1519 31.023 43.2343 25.9273 45.3373C20.8316 47.4404 16.2016 50.5229 12.3015 54.4088C8.40145 58.2948 5.30776 62.9081 3.19706 67.9853C1.08636 73.0625 -4.82181e-07 78.5043 0 83.9998H84Z" fill="#233B99"/>
</g>
<defs>
<clipPath id="clip0_1_82">
<rect width="84" height="84" fill="white"/>
</clipPath>
</defs>
</svg>
