<svg width="91" height="92" viewBox="0 0 91 92" fill="none" xmlns="http://www.w3.org/2000/svg">
<g clip-path="url(#clip0_1_89)">
<path d="M29.0512 92.0001C45.0957 92.0001 58.1024 78.9934 58.1024 62.9489C58.1024 46.9044 45.0957 33.8977 29.0512 33.8977C13.0067 33.8977 0 46.9044 0 62.9489C0 78.9934 13.0067 92.0001 29.0512 92.0001Z" fill="#CDDCEB"/>
<path d="M44.3112 58.1024C60.3557 58.1024 73.3624 45.0957 73.3624 29.0512C73.3624 13.0067 60.3557 0 44.3112 0C28.2667 0 15.26 13.0067 15.26 29.0512C15.26 45.0957 28.2667 58.1024 44.3112 58.1024Z" fill="#233B99"/>
<path d="M61.9489 92.0001C77.9934 92.0001 91.0001 78.9934 91.0001 62.9489C91.0001 46.9044 77.9934 33.8977 61.9489 33.8977C45.9044 33.8977 32.8977 46.9044 32.8977 62.9489C32.8977 78.9934 45.9044 92.0001 61.9489 92.0001Z" fill="#FF7549"/>
</g>
<defs>
<clipPath id="clip0_1_89">
<rect width="91" height="92" fill="white"/>
</clipPath>
</defs>
</svg>
