<svg width="113" height="60" viewBox="0 0 113 60" fill="none" xmlns="http://www.w3.org/2000/svg">
<g clip-path="url(#clip0_1_98)">
<path d="M30.0335 60C46.6205 60 60.067 46.5685 60.067 30C60.067 13.4315 46.6205 0 30.0335 0C13.4465 0 0 13.4315 0 30C0 46.5685 13.4465 60 30.0335 60Z" fill="#FF7549"/>
<path d="M52.9329 60C69.52 60 82.9664 46.5685 82.9664 30C82.9664 13.4315 69.52 0 52.9329 0C36.3459 0 22.8994 13.4315 22.8994 30C22.8994 46.5685 36.3459 60 52.9329 60Z" fill="#233B99"/>
<path d="M82.9666 60C99.5536 60 113 46.5685 113 30C113 13.4315 99.5536 0 82.9666 0C66.3796 0 52.9331 13.4315 52.9331 30C52.9331 46.5685 66.3796 60 82.9666 60Z" fill="#CDDCEB"/>
</g>
<defs>
<clipPath id="clip0_1_98">
<rect width="113" height="60" fill="white"/>
</clipPath>
</defs>
</svg>
