<svg width="65" height="84" viewBox="0 0 65 84" fill="none" xmlns="http://www.w3.org/2000/svg">
<g clip-path="url(#clip0_1_230)">
<path d="M55.1317 9.50235L18.7942 41.0501H0.512088V31.1677C0.512088 29.8754 0.43654 28.6591 0.663178 27.4428V27.2147C3.15619 11.4788 16.5278 0 32.3924 0C40.4758 0 48.1815 3.04075 54.1496 8.59012C54.5274 8.8942 54.8295 9.19827 55.1317 9.50235Z" fill="#FF7549"/>
<path d="M64.499 32.308C64.499 39.1497 62.3082 44.7751 59.2108 49.4883H9.1239L18.8693 41.0502L55.2069 9.50244C60.4951 14.8997 63.7436 21.8935 64.4235 29.4193C64.499 30.3315 64.499 31.3198 64.499 32.308Z" fill="#233B99"/>
<path d="M64.5 49.4873V83.9999H2.62793V55.1127L9.12488 49.4873H64.5Z" fill="#CDDCEB"/>
</g>
<defs>
<clipPath id="clip0_1_230">
<rect width="65" height="84" fill="white"/>
</clipPath>
</defs>
</svg>
