<svg width="62" height="84" viewBox="0 0 62 84" fill="none" xmlns="http://www.w3.org/2000/svg">
<g clip-path="url(#clip0_1_239)">
<path d="M59.0168 26.5668C59.0168 27.9384 58.944 29.2379 58.7257 30.5374C58.5074 31.8368 58.2163 33.2085 57.7797 34.4358H3.49333C3.42056 34.2192 3.27502 27.7219 3.27502 26.7834C3.27502 24.1123 3.63888 21.5133 4.43935 18.9866V18.9144C7.93231 7.79678 18.9206 0 31.1459 0C46.5731 0.0721924 59.0168 11.9839 59.0168 26.5668Z" fill="#233B99"/>
<path d="M62 53.7512C62 70.4276 48.101 83.9998 31 83.9998C24.5235 83.9998 17.9742 81.7618 12.4437 77.7913C7.05869 73.8929 3.1291 68.3341 1.23708 62.1255C0.727686 60.4651 0.291084 58.7325 0.0727744 56.9999L0 56.2779V41.1175H20.1573V34.4355H57.7793C60.5446 39.0558 62 48.409 62 53.7512Z" fill="#FF7549"/>
</g>
<defs>
<clipPath id="clip0_1_239">
<rect width="62" height="84" fill="white"/>
</clipPath>
</defs>
</svg>
